# xmcd CD database file
#
# Track frame offsets:
#	150
#	12537
#	26135
#	43425
#	53835
#	67512
#	74305
#	84250
#	107560
#	123627
#	139112
#	147860
#	162965
#	170867
#
# Disc length: 2508 seconds
#
# Revision: 0
# Processed by: cddbd v1.4PL0 Copyright (c) Steve Scherf et al.
# Submitted via: CDex 1.50beta10
#
DISCID=c709ca0e
DTITLE=Trio de Janeiro - Amoregano
DYEAR=1900
DGENRE=Jazz
TTITLE0=Samba de Soho
TTITLE1=The girl from Ipanema
TTITLE2=Favela
TTITLE3=Apanhei-te Cavaquinho
TTITLE4=Summer samba
TTITLE5=Er det D-dur vil ha
TTITLE6=Pagode da Saideira
TTITLE7=Black Orpheus
TTITLE8=Aquarela do Brazil
TTITLE9=Agua de beber
TTITLE10=Om kvelden
TTITLE11=Wave
TTITLE12=Triunfante
TTITLE13=A Felicidade
EXTD=
EXTT0=
EXTT1=
EXTT2=
EXTT3=
EXTT4=
EXTT5=
EXTT6=
EXTT7=
EXTT8=
EXTT9=
EXTT10=
EXTT11=
EXTT12=
EXTT13=
PLAYORDER=
